<?xml version="1.0" encoding="utf-8"?>
<svg id="master-artboard" viewBox="0 0 1400 580" version="1.1" xmlns="http://www.w3.org/2000/svg" x="0px" y="0px" style="enable-background:new 0 0 336 235.2;" width="1400px" height="980px"><defs><path id="text-path-0" d="M 635.765625 290.66766357421875 C 669.909753205714 289.9626637982187 715.012121794286 289.9626637982187 749.15625 290.66766357421875" style="fill: none; stroke: red; stroke-width: 2;"/><style id="ee-google-fonts">@import url(https://fonts.googleapis.com/css?family=Bevan:400);</style></defs><g transform="matrix(-3.76634505295749, 2.522156793119306, -2.522156793119306, -3.76634505295749, 2260.8230032622087, 249.4955100824801)"><g id="g-1" transform="matrix(1, 0, 0, 1, 0, 0)">
	<g id="g-2">
		<path class="st0" d="M355.7,185.2c20.2,7.9,30.5,31.1,22.6,51.2c-8,20.1-30.7,29.9-50.8,22c-2.3-0.9-4.4-2.1-6.5-3.4&#10;&#9;&#9;&#9;c11.8,25.2,41.9,36.1,67.1,24.2c11.6-5.4,20.7-15.1,25.4-27c10-25.9-2.9-54.9-28.7-64.9C375.5,183.8,365.4,183,355.7,185.2z" style="fill: rgb(51, 51, 51);"/>
	</g>
</g></g><g transform="matrix(-2.923702585100092, 1.591781342401836, -1.591781342401836, -2.923702585100092, 1858.6084209617104, 376.5022260310845)"><g id="g-5" transform="matrix(1, 0, 0, 1, 0, 0)">
	<g id="g-6">
		<path class="st0" d="M355.7,185.2c20.2,7.9,30.5,31.1,22.6,51.2c-8,20.1-30.7,29.9-50.8,22c-2.3-0.9-4.4-2.1-6.5-3.4&#10;&#9;&#9;&#9;c11.8,25.2,41.9,36.1,67.1,24.2c11.6-5.4,20.7-15.1,25.4-27c10-25.9-2.9-54.9-28.7-64.9C375.5,183.8,365.4,183,355.7,185.2z" style="fill: rgb(51, 51, 51);"/>
	</g>
</g></g><g transform="matrix(-2.1345691680908208, 1.2417268753051762, -1.2417268753051762, -2.1345691680908208, 1581.2530751503318, 316.2395056050731)"><g id="g-7" transform="matrix(1, 0, 0, 1, 0, 0)">
	<g id="g-8">
		<path class="st0" d="M355.7,185.2c20.2,7.9,30.5,31.1,22.6,51.2c-8,20.1-30.7,29.9-50.8,22c-2.3-0.9-4.4-2.1-6.5-3.4&#10;&#9;&#9;&#9;c11.8,25.2,41.9,36.1,67.1,24.2c11.6-5.4,20.7-15.1,25.4-27c10-25.9-2.9-54.9-28.7-64.9C375.5,183.8,365.4,183,355.7,185.2z" style="fill: rgb(51, 51, 51);"/>
	</g>
</g></g><path d="M 637.0385131835938 288.6513977050781 L 636.36865234375 288.6648254394531 L 636.331298828125 286.8052062988281 L 636.8812255859375 286.794189453125 C 637.1011962890625 286.7897644042969 637.2817993164062 286.8194885253906 637.423095703125 286.8833312988281 C 637.5642700195312 286.94049072265625 637.6695556640625 287.03509521484375 637.7388916015625 287.16705322265625 C 637.8148803710938 287.29888916015625 637.8642578125 287.4346008300781 637.8870849609375 287.57415771484375 C 637.9166870117188 287.72027587890625 637.9336547851562 287.9032897949219 637.9380493164062 288.1232604980469 L 637.959716796875 289.2030334472656 C 637.9628295898438 289.3563232421875 637.9789428710938 289.49603271484375 638.0081787109375 289.62213134765625 C 638.0440063476562 289.74810791015625 638.0828857421875 289.85736083984375 638.124755859375 289.9498596191406 C 638.1732788085938 290.042236328125 638.23828125 290.1242980957031 638.3197021484375 290.1960144042969 C 638.4010620117188 290.26104736328125 638.4788208007812 290.316162109375 638.5531005859375 290.3613586425781 C 638.6206665039062 290.40667724609375 638.7147827148438 290.4447937011719 638.83544921875 290.4757080078125 C 638.9494018554688 290.50677490234375 639.0499267578125 290.53143310546875 639.136962890625 290.5496826171875 C 639.223876953125 290.561279296875 639.33740234375 290.5690002441406 639.4775390625 290.5728759765625 C 639.6109619140625 290.57684326171875 639.7210693359375 290.581298828125 639.807861328125 290.58624267578125 C 639.8878173828125 290.5846252441406 640.0011596679688 290.5823669433594 640.1477661132812 290.57940673828125 L 641.5974731445312 290.55035400390625 L 641.5575561523438 288.56072998046875 C 641.3509521484375 288.56488037109375 641.18408203125 288.5549011230469 641.056884765625 288.53076171875 C 640.9365234375 288.51318359375 640.845703125 288.4750061035156 640.7845458984375 288.4162292480469 C 640.7234497070312 288.3641052246094 640.6856079101562 288.3048400878906 640.6709594726562 288.23846435546875 C 640.6497192382812 288.1788635253906 640.6380615234375 288.09576416015625 640.6359252929688 287.9891052246094 L 640.62548828125 287.4692077636719 C 640.6187133789062 287.1292724609375 640.496337890625 286.8483581542969 640.258544921875 286.62640380859375 C 640.01416015625 286.4112548828125 639.617431640625 286.245849609375 639.068359375 286.13018798828125 C 639.6991577148438 285.99749755859375 640.1844482421875 285.7577209472656 640.524169921875 285.41082763671875 C 640.8638305664062 285.0572814941406 641.0283203125 284.6138916015625 641.0176391601562 284.0806579589844 C 641.0084228515625 283.6207580566406 640.9305419921875 283.2289123535156 640.7839965820312 282.9051208496094 C 640.6441650390625 282.5811767578125 640.43896484375 282.32525634765625 640.16845703125 282.1372985839844 C 639.8980102539062 281.9493713378906 639.5885620117188 281.8155517578125 639.240234375 281.73583984375 C 638.8919067382812 281.6561584472656 638.48779296875 281.62091064453125 638.0278930664062 281.630126953125 L 632.4089965820312 281.74285888671875 L 632.4481201171875 283.6924743652344 L 633.3079223632812 283.6752014160156 L 633.4092407226562 288.7242126464844 L 632.5593872070312 288.7412414550781 L 632.5994873046875 290.7408447265625 C 634.6123046875 290.69378662109375 636.1052856445312 290.6605224609375 637.0784301757812 290.6409912109375 L 637.0385131835938 288.6513977050781 M 636.2762451171875 285.5560607910156 L 636.2373657226562 283.616455078125 L 636.9072265625 283.60302734375 C 637.2338256835938 283.5964660644531 637.4922485351562 283.6813049316406 637.6824951171875 283.8575134277344 C 637.87255859375 284.0270690917969 637.9705810546875 284.25848388671875 637.9764404296875 284.5517578125 C 637.9800415039062 284.7317199707031 637.946533203125 284.88909912109375 637.8759155273438 285.02386474609375 C 637.798583984375 285.1587829589844 637.6940307617188 285.26422119140625 637.5621948242188 285.3402404785156 C 637.4235229492188 285.4096984863281 637.2778930664062 285.4626159667969 637.1253051757812 285.4990234375 C 636.9725341796875 285.52874755859375 636.8027954101562 285.5455017089844 636.6162109375 285.54925537109375 L 636.2762451171875 285.5560607910156 ZM 645.0409545898438 290.59759521484375 C 645.6275634765625 290.5881042480469 646.156494140625 290.5195617675781 646.6278076171875 290.39190673828125 C 647.0990600585938 290.25762939453125 647.57568359375 290.043212890625 648.0576171875 289.74871826171875 L 648.0374145507812 288.4988708496094 L 646.337646484375 288.5263671875 C 646.327880859375 288.7465515136719 646.2640380859375 288.9242858886719 646.146240234375 289.0595397949219 C 646.0283203125 289.1881103515625 645.8359985351562 289.25457763671875 645.5693969726562 289.2588806152344 C 645.2694091796875 289.26373291015625 645.0274658203125 289.144287109375 644.843505859375 288.90057373046875 C 644.6661987304688 288.65673828125 644.5745239257812 288.3481750488281 644.5684814453125 287.97491455078125 L 647.9080810546875 287.9208984375 C 647.9752197265625 287.9531555175781 648.0187377929688 287.9624328613281 648.0385131835938 287.94879150390625 C 648.0516357421875 287.93524169921875 648.073974609375 287.8748779296875 648.1055908203125 287.7676696777344 C 648.1233520507812 287.62738037109375 648.1311645507812 287.493896484375 648.129150390625 287.36724853515625 C 648.1201782226562 286.8139953613281 647.9954833984375 286.31927490234375 647.7550659179688 285.88311767578125 C 647.521240234375 285.4401550292969 647.16552734375 285.0892028808594 646.6879272460938 284.8302307128906 C 646.2169189453125 284.5644836425781 645.6614379882812 284.436767578125 645.021484375 284.4471130371094 C 644.361572265625 284.4577941894531 643.7838745117188 284.60382080078125 643.2883911132812 284.88519287109375 C 642.7994995117188 285.1664733886719 642.4290161132812 285.5491638183594 642.1767578125 286.0333251953125 C 641.93115234375 286.51068115234375 641.813232421875 287.05267333984375 641.822998046875 287.65924072265625 C 641.8318481445312 288.2058410644531 641.9766235351562 288.7035827636719 642.2572021484375 289.1524353027344 C 642.5311889648438 289.60137939453125 642.9136962890625 289.9585876464844 643.4047241210938 290.2239990234375 C 643.8956298828125 290.4827880859375 644.4410400390625 290.6072998046875 645.0409545898438 290.59759521484375 M 644.560546875 286.8648986816406 C 644.5570068359375 286.6449279785156 644.603759765625 286.4441223144531 644.7008056640625 286.2625427246094 C 644.7979125976562 286.0809326171875 644.9464111328125 285.988525390625 645.1464233398438 285.98529052734375 C 645.2797241210938 285.983154296875 645.3935546875 286.0146484375 645.4879760742188 286.07977294921875 C 645.5755615234375 286.13836669921875 645.6370239257812 286.2273864746094 645.6723022460938 286.3468322753906 C 645.7075805664062 286.4662780761719 645.7293701171875 286.5759582519531 645.7376098632812 286.67584228515625 C 645.7525024414062 286.7689208984375 645.7576293945312 286.8822021484375 645.7531127929688 287.015625 L 644.5632934570312 287.03485107421875 L 644.560546875 286.8648986816406 ZM 648.787841796875 290.4382019042969 L 654.8073120117188 290.3577880859375 L 654.77392578125 287.8580017089844 L 653.7539672851562 287.87164306640625 C 653.7225341796875 288.0120544433594 653.6873779296875 288.1258850097656 653.6485595703125 288.21307373046875 C 653.6098022460938 288.30694580078125 653.5641479492188 288.38421630859375 653.5116577148438 288.4449157714844 C 653.4524536132812 288.5057067871094 653.3997192382812 288.5531005859375 653.353515625 288.5870361328125 C 653.3071899414062 288.6143493652344 653.2341918945312 288.6386413574219 653.1344604492188 288.65997314453125 C 653.03466796875 288.6746520996094 652.9481201171875 288.685791015625 652.8748779296875 288.6934509277344 C 652.8082275390625 288.6943359375 652.6948852539062 288.69586181640625 652.534912109375 288.697998046875 L 651.9749755859375 288.7054748535156 L 651.9741821289062 288.6454772949219 L 654.5383911132812 285.95098876953125 L 654.5180053710938 284.4211120605469 L 648.8584594726562 284.4967346191406 L 648.8908081054688 286.91650390625 L 649.980712890625 286.9019470214844 C 649.9795532226562 286.8152770996094 649.9851684570312 286.738525390625 649.9976196289062 286.67169189453125 C 650.0100708007812 286.6048583984375 650.0326538085938 286.5478820800781 650.0653686523438 286.50079345703125 C 650.0979614257812 286.447021484375 650.1307373046875 286.4032287597656 650.1636352539062 286.36944580078125 C 650.1898193359375 286.3357849121094 650.2361450195312 286.3084716796875 650.3025512695312 286.28759765625 C 650.368896484375 286.2666931152344 650.4220581054688 286.24932861328125 650.4618530273438 286.2354736328125 C 650.5083618164062 286.22149658203125 650.5781860351562 286.2105712890625 650.6714477539062 286.2026672363281 C 650.7647705078125 286.201416015625 650.8380737304688 286.200439453125 650.8914184570312 286.19970703125 C 650.9446411132812 286.1923522949219 651.0279541015625 286.1878967285156 651.1412353515625 286.1863708496094 L 651.4712524414062 286.1819763183594 L 651.4720458984375 286.2419738769531 L 648.766845703125 288.86834716796875 L 648.787841796875 290.4382019042969 ZM 658.7217407226562 284.374267578125 L 655.6019287109375 284.4072570800781 L 655.6201171875 286.1271667480469 L 656.0401000976562 286.1227111816406 L 656.0668334960938 288.652587890625 L 655.6068725585938 288.6574401855469 L 655.624755859375 290.34735107421875 L 659.2745361328125 290.3087463378906 L 659.2566528320312 288.61883544921875 L 658.7666625976562 288.6240234375 L 658.7479858398438 286.8541259765625 C 658.7461547851562 286.6807861328125 658.7979125976562 286.5335693359375 658.9033203125 286.4124450683594 C 659.0086669921875 286.29132080078125 659.1480712890625 286.2298583984375 659.3213500976562 286.22802734375 C 659.4547119140625 286.22662353515625 659.5719604492188 286.28204345703125 659.6731567382812 286.3943176269531 C 659.7743530273438 286.506591796875 659.8258666992188 286.6527099609375 659.8278198242188 286.83270263671875 L 659.864501953125 290.3025207519531 L 663.0443115234375 290.2688903808594 L 663.0264282226562 288.5789794921875 L 662.5864868164062 288.5836181640625 L 662.564453125 286.5037536621094 C 662.5484008789062 284.98382568359375 661.930419921875 284.2303161621094 660.71044921875 284.24322509765625 C 660.2705078125 284.24786376953125 659.8814086914062 284.3353271484375 659.5431518554688 284.5055847167969 C 659.2049560546875 284.67584228515625 658.9341430664062 284.918701171875 658.7308349609375 285.2342224121094 L 658.7217407226562 284.374267578125 ZM 666.6487426757812 290.3404541015625 C 667.2354125976562 290.33575439453125 667.764892578125 290.2715148925781 668.2372436523438 290.1477355957031 C 668.7095336914062 290.01727294921875 669.1878662109375 289.8067626953125 669.6722412109375 289.5162048339844 L 669.6622314453125 288.2662658691406 L 667.9622802734375 288.2798767089844 C 667.9507446289062 288.4999694824219 667.885498046875 288.6771545410156 667.7665405273438 288.81146240234375 C 667.6475830078125 288.9390869140625 667.4547119140625 289.00396728515625 667.1881103515625 289.006103515625 C 666.8880615234375 289.00848388671875 666.6470947265625 288.8870849609375 666.4651489257812 288.6418762207031 C 666.2898559570312 288.3966064453125 666.20068359375 288.0873107910156 666.1976928710938 287.7139892578125 L 669.53759765625 287.6872253417969 C 669.6045532226562 287.72003173828125 669.64794921875 287.72967529296875 669.6678466796875 287.7161865234375 C 669.6810302734375 287.7027587890625 669.7039184570312 287.642578125 669.7363891601562 287.53564453125 C 669.7552490234375 287.3954772949219 669.7642211914062 287.2620849609375 669.76318359375 287.1354064941406 C 669.7587280273438 286.58209228515625 669.6381225585938 286.0863952636719 669.4012451171875 285.64825439453125 C 669.1710205078125 285.20343017578125 668.8181762695312 284.8495788574219 668.3427124023438 284.5867004394531 C 667.8739013671875 284.3171081542969 667.3194580078125 284.18487548828125 666.6795043945312 284.19000244140625 C 666.01953125 284.1953125 665.4406127929688 284.33660888671875 664.9428100585938 284.6139221191406 C 664.4517211914062 284.8912048339844 664.0780639648438 285.2708740234375 663.8218994140625 285.7529602050781 C 663.5723876953125 286.2283020019531 663.4500732421875 286.769287109375 663.4548950195312 287.3759460449219 C 663.4592895507812 287.9225769042969 663.5999755859375 288.4214782714844 663.8768920898438 288.87261962890625 C 664.147216796875 289.32379150390625 664.5267333984375 289.68408203125 665.015625 289.9535217285156 C 665.50439453125 290.2162780761719 666.0487670898438 290.34527587890625 666.6487426757812 290.3404541015625 M 666.1987915039062 286.60394287109375 C 666.197021484375 286.3839416503906 666.2454223632812 286.1835632324219 666.343994140625 286.00274658203125 C 666.4425659179688 285.82196044921875 666.5918579101562 285.73077392578125 666.7918090820312 285.7291564941406 C 666.9251708984375 285.72808837890625 667.0387573242188 285.7605285644531 667.1326293945312 285.8264465332031 C 667.2197875976562 285.8857421875 667.2804565429688 285.9752502441406 667.3147583007812 286.0950012207031 C 667.3490600585938 286.2147216796875 667.3699340820312 286.3245544433594 667.37744140625 286.42449951171875 C 667.3914794921875 286.5177307128906 667.395751953125 286.6310119628906 667.39013671875 286.764404296875 L 666.2001953125 286.77392578125 L 666.1987915039062 286.60394287109375 ZM 674.581298828125 288.2563781738281 C 674.3483276367188 288.3111267089844 674.1484375 288.3390197753906 673.9818115234375 288.3400573730469 C 673.775146484375 288.3413391113281 673.6314697265625 288.2821960449219 673.5507202148438 288.1626892089844 C 673.4766235351562 288.04315185546875 673.4391479492188 287.9100646972656 673.438232421875 287.7633972167969 L 673.42724609375 285.9734191894531 L 674.2672119140625 285.96826171875 L 674.2566528320312 284.248291015625 L 673.4166870117188 284.2534484863281 L 673.4053344726562 282.4034729003906 L 670.7089233398438 283.00006103515625 L 670.7167358398438 284.2700500488281 L 670.146728515625 284.2735290527344 L 670.1572875976562 285.9934997558594 L 670.75732421875 285.9898376464844 L 670.7701416015625 288.07977294921875 C 670.7659301757812 289.5664978027344 671.4705200195312 290.3055114746094 672.8837890625 290.2968444824219 C 673.1771240234375 290.2950439453125 673.4669189453125 290.26324462890625 673.7532348632812 290.2015075683594 C 674.03955078125 290.1397399902344 674.2491455078125 290.0751037597656 674.382080078125 290.00762939453125 L 674.5914916992188 289.9163513183594 L 674.581298828125 288.2563781738281 ZM 676.6144409179688 290.3267822265625 C 676.1744384765625 290.3288879394531 675.8071899414062 290.2073059082031 675.5126342773438 289.9620666503906 C 675.2181396484375 289.71014404296875 675.06982421875 289.370849609375 675.0677490234375 288.9441833496094 C 675.0657958984375 288.5308532714844 675.20751953125 288.2001647949219 675.4929809570312 287.9521179199219 C 675.7785034179688 287.71075439453125 676.14794921875 287.5889892578125 676.6012573242188 287.5867919921875 C 677.0679321289062 287.5845642089844 677.448486328125 287.7027282714844 677.7429809570312 287.9413146972656 C 678.044189453125 288.1865539550781 678.1957397460938 288.51580810546875 678.19775390625 288.92913818359375 C 678.1997680664062 289.3558044433594 678.048095703125 289.696533203125 677.7426147460938 289.95135498046875 C 677.4371337890625 290.1994934082031 677.0610961914062 290.3246154785156 676.6144409179688 290.3267822265625 ZM 684.583251953125 284.7876281738281 L 684.1582641601562 283.10888671875 L 682.978271484375 283.11236572265625 L 682.9828491210938 284.67236328125 L 684.1128540039062 284.6690368652344 L 684.11865234375 286.6290283203125 L 682.9886474609375 286.6323547363281 L 682.9931640625 288.162353515625 L 684.2031860351562 288.1587829589844 L 684.2721557617188 287.8185729980469 L 684.6177978515625 286.3375549316406 L 686.1378173828125 286.33306884765625 L 686.1490478515625 290.1430358886719 L 679.05908203125 290.16400146484375 L 679.05322265625 288.17401123046875 L 679.9232177734375 288.1714172363281 L 679.9082641601562 283.1214599609375 L 679.0382690429688 283.1240234375 L 679.0325317382812 281.1740417480469 L 686.0625 281.15325927734375 L 686.0731811523438 284.7732238769531 L 684.583251953125 284.7876281738281 ZM 695.051513671875 283.0980529785156 L 695.9014892578125 283.0977783203125 L 695.9009399414062 281.1477966308594 L 692.2809448242188 281.1488342285156 L 692.281494140625 283.0988464355469 L 693.1914672851562 283.09857177734375 L 693.1926879882812 287.1685791015625 C 693.1927490234375 287.4952392578125 693.09619140625 287.751953125 692.9028930664062 287.93865966796875 C 692.7096557617188 288.1253967285156 692.4429931640625 288.21881103515625 692.1029663085938 288.2189025878906 C 691.90966796875 288.2189636230469 691.7429809570312 288.17901611328125 691.6029663085938 288.09906005859375 C 691.4629516601562 288.0190734863281 691.3529052734375 287.90911865234375 691.2728271484375 287.7691345214844 C 691.199462890625 287.629150390625 691.1461181640625 287.47918701171875 691.1127319335938 287.3191833496094 C 691.0726928710938 287.1658630371094 691.0526123046875 286.9958801269531 691.0525512695312 286.8092041015625 L 691.051513671875 283.0992126464844 L 691.8715209960938 283.0989685058594 L 691.8709106445312 281.1489562988281 L 687.0609130859375 281.1503601074219 L 687.0615234375 283.1003723144531 L 687.9514770507812 283.10009765625 L 687.952392578125 286.2401123046875 C 687.9525146484375 286.5667724609375 687.9659423828125 286.86676025390625 687.99267578125 287.1401062011719 C 688.0194091796875 287.42010498046875 688.0695190429688 287.7000732421875 688.1429443359375 287.9800720214844 C 688.21630859375 288.2600402832031 688.3097534179688 288.5133361816406 688.4231567382812 288.739990234375 C 688.5365600585938 288.96661376953125 688.6832885742188 289.1799011230469 688.8633422851562 289.3798522949219 C 689.050048828125 289.5731201171875 689.2600708007812 289.73638916015625 689.4934692382812 289.8696594238281 C 689.7335205078125 290.0029296875 690.016845703125 290.1094970703125 690.3435668945312 290.1894226074219 C 690.6769409179688 290.2626647949219 691.0435791015625 290.2992248535156 691.443603515625 290.2991027832031 C 692.076904296875 290.2989196777344 692.6668701171875 290.17205810546875 693.2135009765625 289.9185791015625 C 693.7600708007812 289.6717529296875 694.2033081054688 289.3116149902344 694.5431518554688 288.83819580078125 C 694.883056640625 288.36474609375 695.0528564453125 287.8380432128906 695.052734375 287.2580261230469 L 695.051513671875 283.0980529785156 Z" transform="matrix(13.127994537353516, 0.008249454200267792, -0.008249454200267792, 13.127994537353516, -7787.82470703125, -3495.778564453125)" style="fill: rgb(51, 51, 51); white-space: pre; color: rgb(51, 51, 51); fill-opacity: 1;"/></svg>