<?xml version="1.0" encoding="utf-8"?>
<svg id="master-artboard" viewBox="0 0 1400 480" version="1.1" xmlns="http://www.w3.org/2000/svg" x="0px" y="0px" style="enable-background:new 0 0 1400 480;" width="1400px" height="480px"><defs><path id="text-path-0" d="M 635.765625 290.66766357421875 C 669.909753205714 289.9626637982187 715.012121794286 289.9626637982187 749.15625 290.66766357421875" style="fill: none; stroke: red; stroke-width: 2;"/><style id="ee-google-fonts">@import url(https://fonts.googleapis.com/css?family=Chango:400);</style></defs><g transform="matrix(1, 0, 0, 1, -0.000008842709576128982, -5.569531253968307e-7)"><g transform="matrix(-3.7662162780761714, 2.432989120483398, -2.432989120483398, -3.7662162780761714, 2179.0276473284057, 218.28745931748625)"><g id="g-1" transform="matrix(1, 0, 0, 1, 0, 0)">
	<g id="g-2">
		<path class="st0" d="M355.7,185.2c20.2,7.9,30.5,31.1,22.6,51.2c-8,20.1-30.7,29.9-50.8,22c-2.3-0.9-4.4-2.1-6.5-3.4&#10;&#9;&#9;&#9;c11.8,25.2,41.9,36.1,67.1,24.2c11.6-5.4,20.7-15.1,25.4-27c10-25.9-2.9-54.9-28.7-64.9C375.5,183.8,365.4,183,355.7,185.2z" style="fill: rgb(51, 51, 51);"/>
	</g>
</g></g><g transform="matrix(-2.8920264244079594, 1.5745354890823366, -1.5745354890823366, -2.8920264244079594, 1782.8059676409055, 313.7556600010804)"><g id="g-5" transform="matrix(1, 0, 0, 1, 0, 0)">
	<g id="g-6">
		<path class="st0" d="M355.7,185.2c20.2,7.9,30.5,31.1,22.6,51.2c-8,20.1-30.7,29.9-50.8,22c-2.3-0.9-4.4-2.1-6.5-3.4&#10;&#9;&#9;&#9;c11.8,25.2,41.9,36.1,67.1,24.2c11.6-5.4,20.7-15.1,25.4-27c10-25.9-2.9-54.9-28.7-64.9C375.5,183.8,365.4,183,355.7,185.2z" style="fill: rgb(51, 51, 51);"/>
	</g>
</g></g><g transform="matrix(-2.1114425659179688, 1.2282736301422121, -1.2282736301422121, -2.1114425659179688, 1508.4556258440307, 254.14582723740833)"><g id="g-7" transform="matrix(1, 0, 0, 1, 0, 0)">
	<g id="g-8">
		<path class="st0" d="M355.7,185.2c20.2,7.9,30.5,31.1,22.6,51.2c-8,20.1-30.7,29.9-50.8,22c-2.3-0.9-4.4-2.1-6.5-3.4&#10;&#9;&#9;&#9;c11.8,25.2,41.9,36.1,67.1,24.2c11.6-5.4,20.7-15.1,25.4-27c10-25.9-2.9-54.9-28.7-64.9C375.5,183.8,365.4,183,355.7,185.2z" style="fill: rgb(51, 51, 51);"/>
	</g>
</g></g><path d="M 787.609130859375 321.7035827636719 L 787.859130859375 345.38360595703125 C 787.859130859375 347.00360107421875 788.7557983398438 347.8135986328125 790.5491333007812 347.8135986328125 C 795.8424682617188 347.8135986328125 800.0025024414062 346.3435974121094 803.0291748046875 343.4035949707031 C 806.0557861328125 340.4569091796875 807.5691528320312 336.9802551269531 807.5691528320312 332.97357177734375 C 807.5691528320312 328.96026611328125 806.1424560546875 325.50360107421875 803.2891235351562 322.60357666015625 C 800.4291381835938 319.7035827636719 796.225830078125 318.25360107421875 790.6791381835938 318.25360107421875 C 788.6325073242188 318.25360107421875 787.609130859375 319.4035949707031 787.609130859375 321.7035827636719 M 821.13916015625 359.9736022949219 C 822.7591552734375 361.6802673339844 828.5191650390625 368.12359619140625 838.4191284179688 379.3035888671875 C 839.0191650390625 380.07025146484375 839.3191528320312 380.75360107421875 839.3191528320312 381.35357666015625 C 839.3191528320312 383.5735778808594 838.3358154296875 384.68359375 836.369140625 384.68359375 C 831.84912109375 384.770263671875 827.3057861328125 384.8135986328125 822.7391357421875 384.8135986328125 C 818.1724853515625 384.8135986328125 813.629150390625 384.770263671875 809.109130859375 384.68359375 C 806.6358032226562 384.68359375 804.3757934570312 383.70025634765625 802.3291625976562 381.73358154296875 L 791.3191528320312 365.0935974121094 C 790.8924560546875 364.5869140625 790.379150390625 364.2469177246094 789.7791748046875 364.0735778808594 C 788.4124755859375 363.56024169921875 787.7291259765625 364.11358642578125 787.7291259765625 365.73358154296875 L 787.7291259765625 378.7935791015625 C 787.7291259765625 382.46026611328125 785.3191528320312 384.423583984375 780.4991455078125 384.68359375 C 775.6791381835938 384.9369201660156 770.4091796875 385.0635986328125 764.6891479492188 385.0635986328125 C 758.975830078125 385.0635986328125 752.0657958984375 384.8502502441406 743.9591674804688 384.423583984375 C 741.48583984375 384.2569274902344 739.5025024414062 383.4035949707031 738.0091552734375 381.86358642578125 C 736.5158081054688 380.33026123046875 735.63916015625 378.58026123046875 735.379150390625 376.61358642578125 C 734.6991577148438 369.10693359375 734.359130859375 357.31024169921875 734.359130859375 341.22357177734375 C 734.359130859375 325.1369323730469 734.6158447265625 313.42694091796875 735.129150390625 306.0935974121094 C 735.6358032226562 298.75360107421875 739.3458251953125 295.0402526855469 746.2591552734375 294.9535827636719 C 752.7457885742188 294.8669128417969 761.5791625976562 294.8235778808594 772.7591552734375 294.8235778808594 C 783.9391479492188 294.8235778808594 793.19580078125 294.9102478027344 800.5291748046875 295.0835876464844 C 811.1158447265625 295.250244140625 819.7791748046875 299.173583984375 826.5191650390625 306.85357666015625 C 833.2591552734375 314.5335998535156 836.629150390625 323.1969299316406 836.629150390625 332.8435974121094 C 836.629150390625 338.4769287109375 835.3291625976562 343.6802673339844 832.7291259765625 348.4535827636719 C 830.1224975585938 353.23358154296875 826.2591552734375 357.0735778808594 821.13916015625 359.9736022949219 ZM 869.6488647460938 323.3035888671875 C 869.6488647460938 323.3035888671875 870.6322021484375 322.8235778808594 872.5988159179688 321.86358642578125 C 874.558837890625 320.9035949707031 877.6088256835938 319.9969177246094 881.7488403320312 319.1435852050781 C 885.8888549804688 318.2902526855469 891.0088500976562 317.86358642578125 897.1088256835938 317.86358642578125 C 903.2088623046875 317.86358642578125 909.0321655273438 318.6102600097656 914.578857421875 320.10357666015625 C 920.12548828125 321.596923828125 924.2655029296875 323.62359619140625 926.9988403320312 326.18359375 C 931.77880859375 330.8769226074219 934.1688232421875 336.3802490234375 934.1688232421875 342.693603515625 C 934.1688232421875 352.5935974121094 925.8054809570312 357.5435791015625 909.078857421875 357.5435791015625 C 903.1921997070312 357.5435791015625 897.0888671875 356.9902648925781 890.7688598632812 355.8835754394531 C 891.02880859375 361.51690673828125 892.0755004882812 365.48358154296875 893.9088134765625 367.7835998535156 C 895.7421875 370.09027099609375 899.0054931640625 371.24359130859375 903.6988525390625 371.24359130859375 C 908.3921508789062 371.24359130859375 912.2755126953125 370.7302551269531 915.3488159179688 369.7035827636719 C 918.4221801757812 368.68359375 920.8955078125 367.6402587890625 922.7688598632812 366.5735778808594 C 924.6488037109375 365.5069274902344 926.2488403320312 364.9736022949219 927.56884765625 364.9736022949219 C 928.8955078125 364.9736022949219 930.02880859375 365.57025146484375 930.9688720703125 366.7635803222656 C 932.41552734375 368.29693603515625 933.1388549804688 370.40692138671875 933.1388549804688 373.0935974121094 C 933.1388549804688 375.78692626953125 932.6055297851562 377.62359619140625 931.538818359375 378.60357666015625 C 930.47216796875 379.5835876464844 928.788818359375 380.5435791015625 926.4888305664062 381.48358154296875 C 918.3822021484375 384.89691162109375 906.8621826171875 386.60357666015625 891.9288330078125 386.60357666015625 C 879.5554809570312 386.60357666015625 869.3788452148438 383.6369323730469 861.3988647460938 377.7035827636719 C 853.4188232421875 371.77691650390625 849.4288330078125 363.77691650390625 849.4288330078125 353.7035827636719 C 849.4288330078125 348.8435974121094 850.3255004882812 344.3869323730469 852.1188354492188 340.3335876464844 C 853.9121704101562 336.2802429199219 856.3021850585938 332.90692138671875 859.288818359375 330.2135925292969 C 862.2755126953125 327.52691650390625 865.7288208007812 325.22357177734375 869.6488647460938 323.3035888671875 M 899.3488159179688 332.4535827636719 C 894.1421508789062 332.4535827636719 891.3255004882812 336.6802673339844 890.8988647460938 345.13360595703125 C 894.9988403320312 345.47357177734375 897.1322021484375 345.6435852050781 897.298828125 345.6435852050781 C 902.9321899414062 345.6435852050781 905.7488403320312 343.76690673828125 905.7488403320312 340.0135803222656 C 905.7488403320312 334.97357177734375 903.615478515625 332.4535827636719 899.3488159179688 332.4535827636719 ZM 979.7345581054688 385.0635986328125 L 950.424560546875 384.68359375 C 948.97119140625 384.68359375 947.6045532226562 384.3002624511719 946.3245239257812 383.5335998535156 C 945.0445556640625 382.76025390625 944.404541015625 381.73358154296875 944.404541015625 380.4535827636719 L 944.404541015625 372.9035949707031 C 944.404541015625 370.770263671875 945.0645751953125 369.000244140625 946.384521484375 367.5935974121094 C 947.711181640625 366.1869201660156 950.1245727539062 363.64691162109375 953.6245727539062 359.9736022949219 C 961.3045654296875 351.9535827636719 967.1478881835938 345.4702453613281 971.154541015625 340.5235900878906 C 971.9212036132812 339.5835876464844 972.1978759765625 338.7302551269531 971.9845581054688 337.9635925292969 C 971.771240234375 337.1969299316406 971.1978759765625 336.8135986328125 970.2645263671875 336.8135986328125 L 951.3145751953125 336.8135986328125 C 950.0345458984375 336.8135986328125 949.0311889648438 336.36358642578125 948.3045654296875 335.4635925292969 C 947.5845336914062 334.57025146484375 947.2245483398438 333.5669250488281 947.2245483398438 332.4535827636719 L 947.2245483398438 324.3935852050781 C 947.2245483398438 321.0669250488281 948.587890625 319.4035949707031 951.3145751953125 319.4035949707031 C 982.8012084960938 319.4035949707031 1003.7078857421875 319.4469299316406 1014.0345458984375 319.5335998535156 C 1015.4878540039062 319.5335998535156 1016.8545532226562 319.91693115234375 1018.134521484375 320.68359375 C 1019.41455078125 321.45025634765625 1020.0545654296875 322.47357177734375 1020.0545654296875 323.75360107421875 L 1020.0545654296875 331.3035888671875 C 1020.0545654296875 333.270263671875 1019.1378784179688 335.32025146484375 1017.3045654296875 337.4535827636719 C 1015.4645385742188 339.5869140625 1011.8778686523438 343.4469299316406 1006.5445556640625 349.0335998535156 C 1001.211181640625 354.6202697753906 996.7978515625 359.5069274902344 993.3045654296875 363.693603515625 C 992.5311889648438 364.6269226074219 992.251220703125 365.4802551269531 992.4645385742188 366.25360107421875 C 992.6778564453125 367.020263671875 993.2545166015625 367.4035949707031 994.1945190429688 367.4035949707031 L 1018.2645263671875 367.4035949707031 C 1019.5445556640625 367.4035949707031 1020.5445556640625 367.8502502441406 1021.2645263671875 368.74359130859375 C 1021.9912109375 369.6435852050781 1022.3545532226562 370.64691162109375 1022.3545532226562 371.75360107421875 L 1022.3545532226562 379.8135986328125 C 1022.3545532226562 383.14691162109375 1020.9912109375 384.8135986328125 1018.2645263671875 384.8135986328125 L 979.7345581054688 385.0635986328125 ZM 1078.936279296875 317.35357666015625 C 1106.7496337890625 317.35357666015625 1120.7862548828125 326.4002685546875 1121.0462646484375 344.49359130859375 C 1121.2130126953125 352.173583984375 1121.2962646484375 359.2135925292969 1121.2962646484375 365.61358642578125 C 1121.2962646484375 372.0135803222656 1121.25634765625 376.32025146484375 1121.17626953125 378.5335998535156 C 1121.089599609375 380.75360107421875 1120.512939453125 382.35357666015625 1119.4462890625 383.3335876464844 C 1118.379638671875 384.32025146484375 1116.3095703125 384.8135986328125 1113.236328125 384.8135986328125 L 1086.0963134765625 384.8135986328125 C 1083.36962890625 384.8135986328125 1081.492919921875 384.32025146484375 1080.46630859375 383.3335876464844 C 1079.4462890625 382.35357666015625 1078.8929443359375 380.8835754394531 1078.8062744140625 378.923583984375 C 1078.8062744140625 378.8369140625 1078.782958984375 378.6869201660156 1078.736328125 378.4736022949219 C 1078.6962890625 378.26025390625 1078.67626953125 378.0669250488281 1078.67626953125 377.8935852050781 C 1073.04296875 383.70025634765625 1065.3629150390625 386.60357666015625 1055.63623046875 386.60357666015625 C 1048.896240234375 386.60357666015625 1043.15625 384.91693115234375 1038.416259765625 381.5435791015625 C 1033.6829833984375 378.1769104003906 1031.3162841796875 373.52691650390625 1031.3162841796875 367.5935974121094 C 1031.3162841796875 361.6602478027344 1033.0029296875 356.923583984375 1036.3763427734375 353.3835754394531 C 1039.742919921875 349.8435974121094 1043.7529296875 347.43359375 1048.40625 346.1535949707031 C 1053.052978515625 344.87359619140625 1058.04296875 344.23358154296875 1063.3763427734375 344.23358154296875 C 1068.7095947265625 344.23358154296875 1073.936279296875 344.7469177246094 1079.0562744140625 345.7735900878906 L 1079.0562744140625 345.25360107421875 C 1079.0562744140625 340.9869384765625 1078.226318359375 337.91693115234375 1076.5662841796875 336.0435791015625 C 1074.899658203125 334.16357421875 1072.2095947265625 333.22357177734375 1068.496337890625 333.22357177734375 C 1064.7896728515625 333.22357177734375 1061.6962890625 333.5435791015625 1059.21630859375 334.18359375 C 1056.742919921875 334.8235778808594 1054.8663330078125 335.4869384765625 1053.5863037109375 336.173583984375 C 1050.0863037109375 338.2202453613281 1047.65625 339.24359130859375 1046.2962646484375 339.24359130859375 C 1044.9295654296875 339.24359130859375 1043.7130126953125 338.60357666015625 1042.646240234375 337.3235778808594 C 1041.57958984375 336.0435791015625 1041.0462646484375 334.06024169921875 1041.0462646484375 331.37359619140625 C 1041.0462646484375 328.6802673339844 1041.5362548828125 326.8235778808594 1042.5162353515625 325.8035888671875 C 1043.496337890625 324.77691650390625 1045.052978515625 323.75360107421875 1047.186279296875 322.73358154296875 C 1054.6129150390625 319.14691162109375 1065.1962890625 317.35357666015625 1078.936279296875 317.35357666015625 M 1072.916259765625 369.7035827636719 C 1076.669677734375 369.7035827636719 1078.589599609375 368.9802551269531 1078.67626953125 367.5335998535156 C 1078.849609375 364.7135925292969 1078.936279296875 361.000244140625 1078.936279296875 356.3935852050781 C 1078.936279296875 354.6002502441406 1077.569580078125 353.7035827636719 1074.8363037109375 353.7035827636719 C 1072.1029052734375 353.7035827636719 1069.8829345703125 354.3669128417969 1068.17626953125 355.693603515625 C 1066.4696044921875 357.0135803222656 1065.6163330078125 358.9535827636719 1065.6163330078125 361.5135803222656 C 1065.6163330078125 364.0735778808594 1066.322998046875 366.08026123046875 1067.736328125 367.5335998535156 C 1069.1429443359375 368.9802551269531 1070.86962890625 369.7035827636719 1072.916259765625 369.7035827636719 ZM 1185.0400390625 365.0935974121094 C 1190.0799560546875 365.0935974121094 1192.5999755859375 360.93359375 1192.5999755859375 352.61358642578125 C 1192.5999755859375 344.2935791015625 1190.0799560546875 340.13360595703125 1185.0400390625 340.13360595703125 C 1183.0799560546875 340.13360595703125 1181.3099365234375 340.79693603515625 1179.72998046875 342.12359619140625 C 1178.1500244140625 343.443603515625 1177.3599853515625 345.3002624511719 1177.3599853515625 347.693603515625 L 1177.3599853515625 357.5435791015625 C 1177.3599853515625 359.9369201660156 1178.1500244140625 361.7935791015625 1179.72998046875 363.11358642578125 C 1181.3099365234375 364.43359375 1183.0799560546875 365.0935974121094 1185.0400390625 365.0935974121094 M 1136.919921875 378.5335998535156 L 1136.6600341796875 336.68359375 C 1136.6600341796875 323.88360595703125 1136.78662109375 311.423583984375 1137.0400390625 299.3035888671875 C 1137.1265869140625 296.4902648925781 1137.6600341796875 294.4002685546875 1138.6400146484375 293.0335998535156 C 1139.6265869140625 291.66693115234375 1141.526611328125 290.98358154296875 1144.3399658203125 290.98358154296875 L 1168.919921875 290.98358154296875 C 1171.7332763671875 290.98358154296875 1173.6300048828125 291.64691162109375 1174.6099853515625 292.97357177734375 C 1175.5899658203125 294.2935791015625 1176.22998046875 297.173583984375 1176.530029296875 301.61358642578125 C 1176.8299560546875 306.04693603515625 1176.97998046875 313.89691162109375 1176.97998046875 325.16357421875 C 1176.97998046875 325.6769104003906 1177.106689453125 326.08026123046875 1177.3599853515625 326.37359619140625 C 1177.6199951171875 326.673583984375 1178.006591796875 326.6102600097656 1178.52001953125 326.18359375 C 1184.4932861328125 320.5502624511719 1191.7232666015625 317.73358154296875 1200.2099609375 317.73358154296875 C 1208.703369140625 317.73358154296875 1215.61669921875 320.443603515625 1220.949951171875 325.86358642578125 C 1226.2833251953125 331.2835998535156 1228.949951171875 340.0735778808594 1228.949951171875 352.23358154296875 C 1228.949951171875 364.3935852050781 1226.260009765625 373.096923828125 1220.8800048828125 378.3435974121094 C 1215.506591796875 383.5902404785156 1208.4666748046875 386.2135925292969 1199.760009765625 386.2135925292969 C 1186.9599609375 386.2135925292969 1178.853271484375 383.270263671875 1175.43994140625 377.3835754394531 C 1175.3599853515625 379.60357666015625 1174.5499267578125 381.31024169921875 1173.010009765625 382.50360107421875 C 1171.4766845703125 383.6969299316406 1169.77001953125 384.3802490234375 1167.8900146484375 384.5535888671875 C 1166.0166015625 384.7269287109375 1162.603271484375 384.8135986328125 1157.6500244140625 384.8135986328125 L 1144.0799560546875 384.5535888671875 C 1142.4599609375 384.5535888671875 1140.8599853515625 383.9769287109375 1139.280029296875 382.8235778808594 C 1137.7066650390625 381.6702575683594 1136.919921875 380.2402648925781 1136.919921875 378.5335998535156 ZM 1240.5958251953125 372.3335876464844 C 1240.5958251953125 372.3335876464844 1240.5958251953125 371.29693603515625 1240.5958251953125 369.2236022949219 C 1240.5958251953125 367.15692138671875 1242.109130859375 364.673583984375 1245.1357421875 361.7735900878906 C 1248.1690673828125 358.8669128417969 1252.2457275390625 357.41357421875 1257.36572265625 357.41357421875 C 1262.4857177734375 357.41357421875 1266.282470703125 358.8235778808594 1268.7557373046875 361.6435852050781 C 1271.2291259765625 364.4569091796875 1272.4658203125 367.7202453613281 1272.4658203125 371.43359375 C 1272.4658203125 375.14691162109375 1270.972412109375 378.51690673828125 1267.9857177734375 381.5435791015625 C 1264.9991455078125 384.5769348144531 1261.2657470703125 386.0935974121094 1256.7857666015625 386.0935974121094 C 1252.3057861328125 386.0935974121094 1248.4891357421875 384.8335876464844 1245.3358154296875 382.3135986328125 C 1242.17578125 379.7935791015625 1240.5958251953125 376.4669189453125 1240.5958251953125 372.3335876464844 ZM 1297.2977294921875 384.5535888671875 C 1294.9110107421875 384.5535888671875 1292.8843994140625 383.7635803222656 1291.2176513671875 382.18359375 C 1289.5577392578125 380.60357666015625 1288.4910888671875 378.000244140625 1288.0177001953125 374.37359619140625 C 1287.551025390625 370.7469177246094 1287.3177490234375 359.8669128417969 1287.3177490234375 341.73358154296875 C 1287.3177490234375 323.6002502441406 1287.6143798828125 311.76025390625 1288.207763671875 306.2135925292969 C 1288.8944091796875 299.04693603515625 1291.92431640625 295.3802490234375 1297.2977294921875 295.2135925292969 C 1303.4443359375 295.0402526855469 1328.917724609375 294.9535827636719 1373.7176513671875 294.9535827636719 C 1378.7509765625 294.9535827636719 1381.2677001953125 298.1535949707031 1381.2677001953125 304.5535888671875 C 1381.2677001953125 309.5869140625 1379.0477294921875 312.10357666015625 1374.607666015625 312.10357666015625 L 1346.44775390625 312.10357666015625 C 1344.6610107421875 312.10357666015625 1343.234375 312.70025634765625 1342.167724609375 313.8935852050781 C 1341.10107421875 315.0935974121094 1340.5677490234375 316.6302490234375 1340.5677490234375 318.50360107421875 L 1340.5677490234375 327.72357177734375 C 1340.5677490234375 330.2835998535156 1341.7176513671875 331.5635986328125 1344.0177001953125 331.5635986328125 L 1367.3177490234375 331.5635986328125 C 1368.684326171875 331.5635986328125 1369.7276611328125 331.69024658203125 1370.44775390625 331.943603515625 C 1371.17431640625 332.2035827636719 1371.837646484375 332.95025634765625 1372.437744140625 334.18359375 C 1373.031005859375 335.423583984375 1373.3277587890625 337.45025634765625 1373.3277587890625 340.2635803222656 C 1373.3277587890625 343.0835876464844 1372.837646484375 344.96026611328125 1371.857666015625 345.8935852050781 C 1370.877685546875 346.8335876464844 1369.2777099609375 347.3035888671875 1367.0577392578125 347.3035888671875 L 1346.19775390625 347.3035888671875 C 1344.0643310546875 347.3035888671875 1342.591064453125 347.8369140625 1341.7777099609375 348.9035949707031 C 1340.9710693359375 349.9702453613281 1340.5677490234375 351.61358642578125 1340.5677490234375 353.8335876464844 L 1340.5677490234375 360.10357666015625 C 1340.5677490234375 363.77691650390625 1342.3143310546875 365.61358642578125 1345.8077392578125 365.61358642578125 L 1377.687744140625 365.61358642578125 C 1379.2210693359375 365.61358642578125 1380.5843505859375 366.06024169921875 1381.7777099609375 366.9535827636719 C 1382.9710693359375 367.846923828125 1383.5677490234375 369.81024169921875 1383.5677490234375 372.8435974121094 C 1383.5677490234375 375.8702697753906 1382.8443603515625 378.58026123046875 1381.397705078125 380.9736022949219 C 1379.9443359375 383.3602600097656 1378.2376708984375 384.5535888671875 1376.2777099609375 384.5535888671875 L 1297.2977294921875 384.5535888671875 ZM 1445.5194091796875 308.3935852050781 L 1445.2694091796875 320.0435791015625 L 1445.2694091796875 344.74359130859375 C 1445.2694091796875 348.33026123046875 1446.37939453125 351.10357666015625 1448.5994873046875 353.0635986328125 C 1450.812744140625 355.0302429199219 1453.4127197265625 356.0135803222656 1456.3994140625 356.0135803222656 C 1459.3861083984375 356.0135803222656 1461.969482421875 355.0302429199219 1464.1494140625 353.0635986328125 C 1466.32275390625 351.10357666015625 1467.409423828125 348.33026123046875 1467.409423828125 344.74359130859375 L 1467.409423828125 306.60357666015625 C 1467.409423828125 302.59027099609375 1467.9427490234375 299.64691162109375 1469.0093994140625 297.7735900878906 C 1470.076171875 295.8935852050781 1472.40283203125 294.9535827636719 1475.989501953125 294.9535827636719 L 1487.7593994140625 294.9535827636719 C 1490.4927978515625 294.9535827636719 1492.372802734375 295.7635803222656 1493.3994140625 297.38360595703125 C 1495.3594970703125 300.2835998535156 1496.3394775390625 311.5069274902344 1496.3394775390625 331.0535888671875 C 1496.3394775390625 337.4535827636719 1496.2528076171875 342.3602600097656 1496.0794677734375 345.7735900878906 C 1495.826171875 352.6802673339844 1494.22607421875 358.8435974121094 1491.2794189453125 364.2635803222656 C 1488.3394775390625 369.68359375 1484.566162109375 374.0135803222656 1479.95947265625 377.25360107421875 C 1470.65283203125 383.8269348144531 1460.11279296875 387.11358642578125 1448.3394775390625 387.11358642578125 C 1432.80615234375 387.11358642578125 1419.9627685546875 383.4869079589844 1409.8094482421875 376.23358154296875 C 1404.689453125 372.5669250488281 1400.659423828125 367.6802673339844 1397.719482421875 361.5735778808594 C 1394.7728271484375 355.4736022949219 1393.256103515625 348.3702392578125 1393.16943359375 340.2635803222656 C 1393.082763671875 336.2569274902344 1393.0394287109375 330.346923828125 1393.0394287109375 322.5335998535156 C 1393.0394287109375 314.7269287109375 1393.1461181640625 309.096923828125 1393.3594970703125 305.6435852050781 C 1393.57275390625 302.18359375 1394.256103515625 299.53692626953125 1395.409423828125 297.7035827636719 C 1396.562744140625 295.8702392578125 1398.889404296875 294.9535827636719 1402.389404296875 294.9535827636719 L 1436.5594482421875 294.9535827636719 C 1439.9727783203125 294.9535827636719 1442.236083984375 295.8502502441406 1443.3494873046875 297.6435852050781 C 1444.796142578125 299.943603515625 1445.5194091796875 303.52691650390625 1445.5194091796875 308.3935852050781 Z" transform="matrix(1.246495008468628, 0, 0, 1.246495008468628, -473.227294921875, -216.9459686279297)" style="fill: rgb(51, 51, 51); white-space: pre; color: rgb(51, 51, 51);"/></g></svg>